HIERARCHY
ROOT SpineBase
{
  OFFSET 0.000000 0.000000 0.000000
  CHANNELS 6 Xposition Yposition Zposition Zrotation Xrotation Yrotation
  JOINT SpineMid
  {
    OFFSET 0.000000 32.393888 0.000000
    CHANNELS 3 Zrotation Xrotation Yrotation
    JOINT SpineShoulder
    {
      OFFSET 0.111481 24.085072 -0.748652
      CHANNELS 3 Zrotation Xrotation Yrotation
      JOINT Neck
      {
        OFFSET 0.065166 7.969395 -0.583959
        CHANNELS 3 Zrotation Xrotation Yrotation
        JOINT Head
        {
          OFFSET -4.237447 14.471607 -1.108090
          CHANNELS 3 Zrotation Xrotation Yrotation
          End Site
          {
            OFFSET 0 0 0
          }
        }
      }
      JOINT ShoulderLeft
      {
        OFFSET -17.310030 -4.381065 5.204991
        CHANNELS 3 Zrotation Xrotation Yrotation
        JOINT ElbowLeft
        {
          OFFSET -2.121387 -22.140603 2.328100
          CHANNELS 3 Zrotation Xrotation Yrotation
          JOINT WristLeft
          {
            OFFSET 4.345506 -7.331139 -23.058949
            CHANNELS 3 Zrotation Xrotation Yrotation
            JOINT HandLeft
            {
              OFFSET 0.749891 -2.436426 -2.170887
              CHANNELS 3 Zrotation Xrotation Yrotation
              JOINT HandTipLeft
              {
                OFFSET -2.702422 -0.081478 -6.314862
                CHANNELS 3 Zrotation Xrotation Yrotation
                End Site
                {
                  OFFSET 0 0 0
                }
              }
              JOINT ThumbLeft
              {
                OFFSET 1.828073 -2.822047 -2.274206
                CHANNELS 3 Zrotation Xrotation Yrotation
                End Site
                {
                  OFFSET 0 0 0
                }
              }
            }
          }
        }
      }
      JOINT ShoulderRight
      {
        OFFSET 15.288251 -2.889647 -6.893702
        CHANNELS 3 Zrotation Xrotation Yrotation
        JOINT ElbowRight
        {
          OFFSET 8.004644 -22.632719 -2.007583
          CHANNELS 3 Zrotation Xrotation Yrotation
          JOINT WristRight
          {
            OFFSET -14.779098 -6.862464 -12.904037
            CHANNELS 3 Zrotation Xrotation Yrotation
            JOINT HandRight
            {
              OFFSET -7.538307 -1.702051 -4.490426
              CHANNELS 3 Zrotation Xrotation Yrotation
              JOINT HandTipRight
              {
                OFFSET -5.220748 -1.390793 -3.561277
                CHANNELS 3 Zrotation Xrotation Yrotation
                End Site
                {
                  OFFSET 0 0 0
                }
              }
              JOINT ThumbRight
              {
                OFFSET -5.723497 0.672910 -3.077728
                CHANNELS 3 Zrotation Xrotation Yrotation
                End Site
                {
                  OFFSET 0 0 0
                }
              }
            }
          }
        }
      }
    }
  }
  JOINT HipLeft
  {
    OFFSET -7.247135 0.281672 -1.525622
    CHANNELS 3 Zrotation Xrotation Yrotation
    JOINT KneeLeft
    {
      OFFSET 1.338761 -32.929437 3.305516
      CHANNELS 3 Zrotation Xrotation Yrotation
      JOINT AnkleLeft
      {
        OFFSET 4.584111 -36.216653 7.332710
        CHANNELS 3 Zrotation Xrotation Yrotation
        JOINT FootLeft
        {
          OFFSET 0.277675 -7.714752 -7.103470
          CHANNELS 3 Zrotation Xrotation Yrotation
          End Site
          {
            OFFSET 0 0 0
          }
        }
      }
    }
  }
  JOINT HipRight
  {
    OFFSET 7.756227 1.657991 -5.917197
    CHANNELS 3 Zrotation Xrotation Yrotation
    JOINT KneeRight
    {
      OFFSET 4.413667 -31.090138 1.214708
      CHANNELS 3 Zrotation Xrotation Yrotation
      JOINT AnkleRight
      {
        OFFSET 1.940784 -38.872286 7.598184
        CHANNELS 3 Zrotation Xrotation Yrotation
        JOINT FootRight
        {
          OFFSET -2.704048 -4.937971 -10.704554
          CHANNELS 3 Zrotation Xrotation Yrotation
          End Site
          {
            OFFSET 0 0 0
          }
        }
      }
    }
  }
}
MOTION
Frames: 9
Frame Time: 0.033333
-23.213903 78.048895 343.731374 -0.000000 0.000000 16.315075 -0.000000 -0.000000 -16.315075 -0.000000 0.000000 0.000000 -0.000000 0.000000 0.000000 0.000000 0.000000 0.000000 -0.000000 0.000000 0.000000 -0.000000 0.000000 0.000000 -0.000000 0.000000 0.000000 -0.000000 0.000000 0.000000 0.000000 0.000000 0.000000 0.000000 0.000000 0.000000 -0.000000 0.000000 0.000000 -0.000000 0.000000 0.000000 -0.000000 0.000000 0.000000 -0.000000 0.000000 0.000000 0.000000 0.000000 0.000000 0.000000 0.000000 0.000000 -0.000000 -0.000000 -16.315075 -0.000000 0.000000 0.000000 -0.000000 0.000000 0.000000 0.000000 0.000000 0.000000 -0.000000 -0.000000 -16.315075 -0.000000 0.000000 0.000000 -0.000000 0.000000 0.000000 0.000000 0.000000 0.000000
-23.126170 78.059654 343.732545 0.028812 0.067140 16.298875 -0.046497 -0.056356 -16.298914 -0.000000 0.000000 0.000000 -0.000000 0.000000 0.000000 0.000000 0.000000 0.000000 -0.000000 0.000000 0.000000 -0.207087 -1.468462 -0.231339 3.242752 13.476430 0.736856 -4.613841 -8.801434 0.062097 0.000000 0.000000 0.000000 0.000000 0.000000 0.000000 -0.000000 0.000000 0.000000 -0.000000 0.000000 0.000000 -0.000000 0.000000 0.000000 -0.000000 0.000000 0.000000 0.000000 0.000000 0.000000 0.000000 0.000000 0.000000 -0.046497 -0.056356 -16.298914 -0.000000 0.000000 0.000000 1.591451 -1.736672 -1.524257 0.000000 0.000000 0.000000 -0.046497 -0.056356 -16.298914 -0.000000 0.000000 0.000000 -0.064008 -1.341017 0.894797 0.000000 0.000000 0.000000
-23.048043 78.069537 343.740070 0.055997 0.131286 16.290809 -0.090576 -0.110307 -16.290961 -0.000000 0.000000 0.000000 -0.000000 0.000000 0.000000 0.000000 0.000000 0.000000 -0.000000 0.000000 0.000000 -0.406377 -2.797678 -0.423805 4.992313 21.532714 0.952789 -7.518827 -13.046097 -0.229106 0.000000 0.000000 0.000000 0.000000 0.000000 0.000000 -0.000000 0.000000 0.000000 -0.000000 0.000000 0.000000 -0.000000 0.000000 0.000000 -0.000000 0.000000 0.000000 0.000000 0.000000 0.000000 0.000000 0.000000 0.000000 -0.090576 -0.110307 -16.290961 -0.000000 0.000000 0.000000 2.990122 -3.066612 -2.851188 0.000000 0.000000 0.000000 -0.090576 -0.110307 -16.290961 -0.000000 0.000000 0.000000 -0.122656 -2.321863 1.604486 0.000000 0.000000 0.000000
-22.979522 78.078541 343.753949 0.081555 0.192440 16.290918 -0.132263 -0.161836 -16.291242 -0.000000 0.000000 0.000000 -0.000000 0.000000 0.000000 0.000000 0.000000 0.000000 -0.000000 0.000000 0.000000 -0.587131 -3.925633 -0.563658 6.006738 26.815511 1.085443 -9.385972 -15.389360 -0.545249 0.000000 0.000000 0.000000 0.000000 0.000000 0.000000 -0.000000 0.000000 0.000000 -0.000000 0.000000 0.000000 -0.000000 0.000000 0.000000 -0.000000 0.000000 0.000000 0.000000 0.000000 0.000000 0.000000 0.000000 0.000000 -0.132263 -0.161836 -16.291242 -0.000000 0.000000 0.000000 4.196161 -3.947778 -3.982440 0.000000 0.000000 0.000000 -0.132263 -0.161836 -16.291242 -0.000000 0.000000 0.000000 -0.187321 -2.911868 2.110367 0.000000 0.000000 0.000000
-22.920608 78.086669 343.774182 0.105488 0.250605 16.299240 -0.171583 -0.210927 -16.299786 -0.000000 0.000000 0.000000 -0.652711 -0.670911 -0.250558 0.000000 0.000000 0.000000 -0.807482 -0.257523 -0.061992 0.073976 -4.536608 -0.576360 6.564523 30.445741 1.255720 -10.530641 -16.951557 -0.853389 0.000000 0.000000 0.000000 0.000000 0.000000 0.000000 -0.000000 0.000000 0.000000 -0.000000 0.000000 0.000000 -0.000000 0.000000 0.000000 -0.000000 0.000000 0.000000 0.000000 0.000000 0.000000 0.000000 0.000000 0.000000 -0.171583 -0.210927 -16.299786 -0.000000 0.000000 0.000000 5.212290 -4.352506 -4.922371 0.000000 0.000000 0.000000 -0.171583 -0.210927 -16.299786 -0.000000 0.000000 0.000000 -0.265772 -3.092930 2.400168 0.000000 0.000000 0.000000
-22.871300 78.093919 343.800768 0.127796 0.305783 16.315809 -0.208556 -0.257565 -16.316618 -0.000000 0.000000 0.000000 -0.761999 -0.731889 -0.277927 0.000000 0.000000 0.000000 -0.933258 -0.303632 -0.071440 0.088935 -5.051936 -0.566531 6.774041 32.932789 1.517762 -11.110304 -18.253422 -1.175473 0.000000 0.000000 0.000000 0.000000 0.000000 0.000000 -0.000000 0.000000 0.000000 -0.000000 0.000000 0.000000 -0.000000 0.000000 0.000000 -0.000000 0.000000 0.000000 0.000000 0.000000 0.000000 0.000000 0.000000 0.000000 -0.208556 -0.257565 -16.316618 -0.000000 0.000000 0.000000 6.041927 -4.265512 -5.676093 0.000000 0.000000 0.000000 -0.208556 -0.257565 -16.316618 -0.707217 0.473755 -0.111786 0.352905 -3.332681 2.583581 0.000000 0.000000 0.000000
-22.833473 78.097944 343.837744 0.158810 0.350406 16.353374 -0.251048 -0.291513 -16.354499 -0.000000 0.000000 0.000000 -0.902953 -0.697838 -0.279491 0.000000 0.000000 0.000000 -0.991353 -0.211412 -0.085729 0.071095 -4.905600 -0.100170 7.406470 33.183747 0.853063 -11.438875 -18.926368 -0.301896 0.000000 0.000000 0.000000 0.000000 0.000000 0.000000 -0.000000 0.000000 0.000000 -0.000000 0.000000 0.000000 -0.000000 0.000000 0.000000 -0.000000 0.000000 0.000000 0.000000 0.000000 0.000000 0.000000 0.000000 0.000000 -0.251048 -0.291513 -16.354499 -0.692588 -0.495241 -0.205884 7.358681 -2.678424 -6.067614 0.000000 0.000000 0.000000 -0.251048 -0.291513 -16.354499 -0.772288 0.664004 -0.113497 1.846962 -9.143123 3.071377 0.000000 0.000000 0.000000
-22.809120 78.102718 343.878090 0.179911 0.411043 16.383537 -0.288551 -0.343603 -16.385047 -0.000000 0.000000 0.000000 -0.970493 -0.723699 -0.292936 0.000000 0.000000 0.000000 -1.045332 -0.261339 -0.087167 0.143612 -4.205377 0.283623 6.931118 32.176518 1.062480 -10.518457 -19.527118 -0.990305 0.000000 0.000000 0.000000 0.000000 0.000000 0.000000 -0.000000 0.000000 0.000000 -0.000000 0.000000 0.000000 -0.000000 0.000000 0.000000 -1.391213 1.275186 -1.125559 0.000000 0.000000 0.000000 0.000000 0.000000 0.000000 -0.288551 -0.343603 -16.385047 -0.716387 -0.409425 -0.199443 7.399103 -1.050955 -6.034323 0.000000 0.000000 0.000000 -0.288551 -0.343603 -16.385047 -0.833499 0.802703 -0.117210 1.869231 -8.692449 2.747516 0.000000 0.000000 0.000000
-22.787346 78.107311 343.922919 0.192633 0.455923 16.405606 -0.313565 -0.382950 -16.407421 -0.000000 0.000000 0.000000 -0.973303 -0.675975 -0.278771 0.000000 0.000000 0.000000 -1.116661 -0.387838 -0.083932 0.101937 -4.091002 0.673471 7.473586 33.591380 0.736262 -10.866017 -20.966804 -1.373927 0.000000 0.000000 0.000000 0.000000 0.000000 0.000000 -0.000000 0.000000 0.000000 -0.563507 0.160286 0.705867 -0.430216 0.602209 -1.375125 -0.715093 0.676687 -0.275883 0.000000 0.000000 0.000000 0.000000 0.000000 0.000000 -0.313565 -0.382950 -16.407421 -0.759713 -0.238655 -0.185687 9.268848 -1.431385 -7.709933 0.000000 0.000000 0.000000 -0.313565 -0.382950 -16.407421 -0.885185 0.763409 -0.129232 1.288429 -5.309469 1.970029 0.000000 0.000000 0.000000
